<svg width="287" height="59" viewBox="0 0 287 59" fill="none" xmlns="http://www.w3.org/2000/svg">
<g clip-path="url(#clip0_921_652)">
<path d="M0.760915 12.85C-0.306643 13.4871 -0.207445 15.1859 0.930969 15.6798L7.55833 18.5689V23.6705C7.55833 24.5644 8.24799 25.2854 9.10298 25.2854C9.56118 25.2854 9.99577 25.0731 10.2886 24.7027L13.2173 21.0333L19.07 23.5816C19.9628 23.9717 20.9973 23.3594 21.1437 22.3617L24.1669 1.81711C24.2566 1.21954 24.0063 0.617028 23.5292 0.276263C23.0521 -0.0645014 22.4286 -0.0941331 21.9231 0.207122L0.760915 12.85ZM3.22197 14.1093L19.3534 4.47409L8.98017 16.5934L9.03685 16.6428L3.22197 14.1093ZM19.0511 21.0086L11.1814 17.5762L21.2949 5.75813L19.0511 21.0086Z" fill="black"/>
</g>
<path d="M27.2515 47.3638V17.9638H35.9875L43.9675 44.3398H44.6395V17.9638H49.1335V47.3638H40.3975L32.4175 20.9458H31.7455V47.3638H27.2515ZM64.8832 47.9518C62.7832 47.9518 60.9492 47.5178 59.3812 46.6498C57.8132 45.7538 56.5812 44.5078 55.6852 42.9118C54.8172 41.2878 54.3832 39.4118 54.3832 37.2838V36.7798C54.3832 34.6238 54.8172 32.7478 55.6852 31.1518C56.5532 29.5278 57.7572 28.2818 59.2972 27.4138C60.8652 26.5178 62.6712 26.0698 64.7152 26.0698C66.7032 26.0698 68.4392 26.5178 69.9232 27.4138C71.4352 28.2818 72.6112 29.4998 73.4512 31.0678C74.2912 32.6358 74.7112 34.4698 74.7112 36.5698V38.2078H58.7932C58.8492 40.0278 59.4512 41.4838 60.5992 42.5758C61.7752 43.6398 63.2312 44.1718 64.9672 44.1718C66.5912 44.1718 67.8092 43.8078 68.6212 43.0798C69.4612 42.3518 70.1052 41.5118 70.5532 40.5598L74.1232 42.4078C73.7312 43.1918 73.1572 44.0178 72.4012 44.8858C71.6732 45.7538 70.7072 46.4818 69.5032 47.0698C68.2992 47.6578 66.7592 47.9518 64.8832 47.9518ZM58.8352 34.8898H70.3012C70.1892 33.3218 69.6292 32.1038 68.6212 31.2358C67.6132 30.3398 66.2972 29.8918 64.6732 29.8918C63.0492 29.8918 61.7192 30.3398 60.6832 31.2358C59.6752 32.1038 59.0592 33.3218 58.8352 34.8898ZM81.9405 47.3638L78.4125 26.6578H82.7385L85.3425 44.4658H86.0145L89.6265 26.6578H96.6405L100.21 44.4658H100.882L103.486 26.6578H107.812L104.284 47.3638H97.0185L93.4485 29.5978H92.7765L89.2065 47.3638H81.9405ZM121.338 47.9518C118.706 47.9518 116.522 47.3638 114.786 46.1878C113.05 45.0118 111.986 43.2338 111.594 40.8538L115.626 39.8878C115.85 41.0358 116.228 41.9458 116.76 42.6178C117.292 43.2898 117.95 43.7658 118.734 44.0458C119.546 44.3258 120.414 44.4658 121.338 44.4658C122.71 44.4658 123.76 44.1998 124.488 43.6678C125.244 43.1358 125.622 42.4498 125.622 41.6098C125.622 40.7698 125.272 40.1538 124.572 39.7618C123.872 39.3698 122.836 39.0478 121.464 38.7958L120.036 38.5438C118.636 38.2918 117.362 37.9278 116.214 37.4518C115.066 36.9758 114.156 36.3178 113.484 35.4778C112.812 34.6378 112.476 33.5598 112.476 32.2438C112.476 30.2838 113.204 28.7718 114.66 27.7078C116.116 26.6158 118.048 26.0698 120.456 26.0698C122.78 26.0698 124.684 26.6018 126.168 27.6658C127.68 28.7018 128.66 30.1158 129.108 31.9078L125.076 33.0418C124.824 31.7818 124.292 30.8998 123.48 30.3958C122.668 29.8638 121.66 29.5978 120.456 29.5978C119.28 29.5978 118.356 29.8218 117.684 30.2698C117.012 30.6898 116.676 31.2918 116.676 32.0758C116.676 32.9158 116.998 33.5318 117.642 33.9238C118.314 34.3158 119.21 34.6098 120.33 34.8058L121.8 35.0578C123.284 35.3098 124.642 35.6598 125.874 36.1078C127.106 36.5558 128.072 37.1998 128.772 38.0398C129.5 38.8798 129.864 39.9998 129.864 41.3998C129.864 43.4718 129.094 45.0818 127.554 46.2298C126.014 47.3778 123.942 47.9518 121.338 47.9518ZM134.795 47.3638V17.9638H143.531L151.511 44.3398H152.183V17.9638H156.677V47.3638H147.941L139.961 20.9458H139.289V47.3638H134.795ZM172.426 47.9518C170.326 47.9518 168.492 47.5178 166.924 46.6498C165.356 45.7538 164.124 44.5078 163.228 42.9118C162.36 41.2878 161.926 39.4118 161.926 37.2838V36.7798C161.926 34.6238 162.36 32.7478 163.228 31.1518C164.096 29.5278 165.3 28.2818 166.84 27.4138C168.408 26.5178 170.214 26.0698 172.258 26.0698C174.246 26.0698 175.982 26.5178 177.466 27.4138C178.978 28.2818 180.154 29.4998 180.994 31.0678C181.834 32.6358 182.254 34.4698 182.254 36.5698V38.2078H166.336C166.392 40.0278 166.994 41.4838 168.142 42.5758C169.318 43.6398 170.774 44.1718 172.51 44.1718C174.134 44.1718 175.352 43.8078 176.164 43.0798C177.004 42.3518 177.648 41.5118 178.096 40.5598L181.666 42.4078C181.274 43.1918 180.7 44.0178 179.944 44.8858C179.216 45.7538 178.25 46.4818 177.046 47.0698C175.842 47.6578 174.302 47.9518 172.426 47.9518ZM166.378 34.8898H177.844C177.732 33.3218 177.172 32.1038 176.164 31.2358C175.156 30.3398 173.84 29.8918 172.216 29.8918C170.592 29.8918 169.262 30.3398 168.226 31.2358C167.218 32.1038 166.602 33.3218 166.378 34.8898ZM184.344 47.3638L192.24 36.9058L184.512 26.6578H189.594L195.012 34.0918H195.684L201.102 26.6578H206.226L198.456 36.9058L206.352 47.3638H201.186L195.684 39.7618H195.012L189.51 47.3638H184.344ZM218.943 47.7418C217.375 47.7418 215.975 47.3918 214.743 46.6918C213.511 45.9918 212.545 44.9978 211.845 43.7098C211.145 42.4218 210.795 40.8818 210.795 39.0898V26.6578H215.121V38.7958C215.121 40.5878 215.569 41.9178 216.465 42.7858C217.361 43.6258 218.607 44.0458 220.203 44.0458C221.967 44.0458 223.381 43.4578 224.445 42.2818C225.537 41.0778 226.083 39.3558 226.083 37.1158V26.6578H230.409V47.3638H226.167V44.2558H225.495C225.103 45.0958 224.403 45.8938 223.395 46.6498C222.387 47.3778 220.903 47.7418 218.943 47.7418ZM245.287 47.9518C242.655 47.9518 240.471 47.3638 238.735 46.1878C236.999 45.0118 235.935 43.2338 235.543 40.8538L239.575 39.8878C239.799 41.0358 240.177 41.9458 240.709 42.6178C241.241 43.2898 241.899 43.7658 242.683 44.0458C243.495 44.3258 244.363 44.4658 245.287 44.4658C246.659 44.4658 247.709 44.1998 248.437 43.6678C249.193 43.1358 249.571 42.4498 249.571 41.6098C249.571 40.7698 249.221 40.1538 248.521 39.7618C247.821 39.3698 246.785 39.0478 245.413 38.7958L243.985 38.5438C242.585 38.2918 241.311 37.9278 240.163 37.4518C239.015 36.9758 238.105 36.3178 237.433 35.4778C236.761 34.6378 236.425 33.5598 236.425 32.2438C236.425 30.2838 237.153 28.7718 238.609 27.7078C240.065 26.6158 241.997 26.0698 244.405 26.0698C246.729 26.0698 248.633 26.6018 250.117 27.6658C251.629 28.7018 252.609 30.1158 253.057 31.9078L249.025 33.0418C248.773 31.7818 248.241 30.8998 247.429 30.3958C246.617 29.8638 245.609 29.5978 244.405 29.5978C243.229 29.5978 242.305 29.8218 241.633 30.2698C240.961 30.6898 240.625 31.2918 240.625 32.0758C240.625 32.9158 240.947 33.5318 241.591 33.9238C242.263 34.3158 243.159 34.6098 244.279 34.8058L245.749 35.0578C247.233 35.3098 248.591 35.6598 249.823 36.1078C251.055 36.5558 252.021 37.1998 252.721 38.0398C253.449 38.8798 253.813 39.9998 253.813 41.3998C253.813 43.4718 253.043 45.0818 251.503 46.2298C249.963 47.3778 247.891 47.9518 245.287 47.9518Z" fill="black"/>
<defs>
<clipPath id="clip0_921_652">
<rect width="24.1854" height="25.2857" fill="white"/>
</clipPath>
</defs>
</svg>
