<svg width="50" height="40" viewBox="0 0 50 40" fill="none" xmlns="http://www.w3.org/2000/svg">
<g clip-path="url(#clip0_1016_535)">
<path d="M20 0H45C47.7578 0 50 2.24219 50 5V22.5C50 25.2578 47.7578 27.5 45 27.5H20C17.2422 27.5 15 25.2578 15 22.5V5C15 2.24219 17.2422 0 20 0ZM37.1875 8.33594C36.8359 7.8125 36.25 7.5 35.625 7.5C35 7.5 34.4141 7.8125 34.0625 8.33594L29.6875 14.8984L28.3359 13.2031C27.9766 12.7578 27.4375 12.5 26.875 12.5C26.3125 12.5 25.7656 12.7578 25.4141 13.2031L20.4141 19.4531C19.9609 20.0156 19.875 20.7891 20.1875 21.4375C20.5 22.0859 21.1562 22.5 21.875 22.5H28.125H31.875H43.125C43.8203 22.5 44.4531 22.1172 44.7812 21.5078C45.1094 20.8984 45.0703 20.1562 44.6875 19.5859L37.1875 8.33594ZM26.25 7.5C26.25 6.83696 25.9866 6.20107 25.5178 5.73223C25.0489 5.26339 24.413 5 23.75 5C23.087 5 22.4511 5.26339 21.9822 5.73223C21.5134 6.20107 21.25 6.83696 21.25 7.5C21.25 8.16304 21.5134 8.79893 21.9822 9.26777C22.4511 9.73661 23.087 10 23.75 10C24.413 10 25.0489 9.73661 25.5178 9.26777C25.9866 8.79893 26.25 8.16304 26.25 7.5ZM5 10H12.5V30V32.5C12.5 33.8828 13.6172 35 15 35H25C26.3828 35 27.5 33.8828 27.5 32.5V30H40V35C40 37.7578 37.7578 40 35 40H5C2.24219 40 0 37.7578 0 35V15C0 12.2422 2.24219 10 5 10ZM5.625 15C4.9375 15 4.375 15.5625 4.375 16.25V17.5C4.375 18.1875 4.9375 18.75 5.625 18.75H6.875C7.5625 18.75 8.125 18.1875 8.125 17.5V16.25C8.125 15.5625 7.5625 15 6.875 15H5.625ZM5.625 23.125C4.9375 23.125 4.375 23.6875 4.375 24.375V25.625C4.375 26.3125 4.9375 26.875 5.625 26.875H6.875C7.5625 26.875 8.125 26.3125 8.125 25.625V24.375C8.125 23.6875 7.5625 23.125 6.875 23.125H5.625ZM5.625 31.25C4.9375 31.25 4.375 31.8125 4.375 32.5V33.75C4.375 34.4375 4.9375 35 5.625 35H6.875C7.5625 35 8.125 34.4375 8.125 33.75V32.5C8.125 31.8125 7.5625 31.25 6.875 31.25H5.625ZM31.875 32.5V33.75C31.875 34.4375 32.4375 35 33.125 35H34.375C35.0625 35 35.625 34.4375 35.625 33.75V32.5C35.625 31.8125 35.0625 31.25 34.375 31.25H33.125C32.4375 31.25 31.875 31.8125 31.875 32.5Z" fill="black"/>
</g>
<defs>
<clipPath id="clip0_1016_535">
<rect width="50" height="40" fill="white"/>
</clipPath>
</defs>
</svg>
